<svg xmlns="http://www.w3.org/2000/svg" width="32" height="32" viewBox="0 0 32 32">
  <defs>
    <linearGradient id="leafGradient" x1="0%" y1="0%" x2="100%" y2="100%">
      <stop offset="0%" stop-color="#4caf50" />
      <stop offset="100%" stop-color="#2e7d32" />
    </linearGradient>
  </defs>
  <g fill="none" stroke="none">
    <path 
      fill="url(#leafGradient)" 
      d="M28,4C18.6,4,14.3,7.3,8,14c-3.1,3.3-4,8.8-4,10c0,1.1,0.9,2,2,2c1.2,0,6.7-0.9,10-4
      c6.7-6.3,10-10.6,10-20c0-1.1-0.9-2-2-2c-1.1,0-2,0.9-2,2c0,7.9-2.3,11.4-8,16.7c-1.6,1.5-4.2,2.3-6,2.3" 
    />
    <path 
      fill="#66bb6a" 
      d="M18,20c-3.3,0-6,2.7-6,6s2.7,6,6,6s6-2.7,6-6S21.3,20,18,20z M18,28c-1.1,0-2-0.9-2-2s0.9-2,2-2
      s2,0.9,2,2S19.1,28,18,28z" 
    />
  </g>
</svg> 